<svg viewBox="64 140 612 398" xmlns="http://www.w3.org/2000/svg" role="img" aria-label="Lompoc Locals">
  <path fill="#efc618" fill-rule="evenodd" d="M257,161.4c-10-17.2-32.1-23.1-49.4-13.1-17.2,10-23.1,32.1-13.1,49.4,10,17.2,32.1,23.1,49.4,13.1,17.2-10,23.1-32.1,13.1-49.4"/>
  <path fill="#0b992f" d="M217.6,334.1c40.9-41.5,89.3-69.6,151.4-52.3-49.4-64.1-103.3-64.5-154.4-36.9,5.2,27.4,5.5,58.1,3.1,89.2"/>
  <g fill="#650c75">
    <path d="M297.1,394.7c0,29.4-17.8,47.2-44,47.2s-42.2-20.1-42.2-45.6,17.2-47,43.6-47,42.6,20.6,42.6,45.4ZM232.4,395.9c0,17.6,8.2,29.9,21.8,29.9s21.5-13,21.5-30.5-7.7-29.9-21.7-29.9-21.7,13-21.7,30.5Z"/>
    <path d="M386.3,406.1c-.4-10.8-.8-23.8-.8-36.8h-.4c-2.8,11.4-6.5,24.2-10,34.7l-10.9,35h-15.8l-9.6-34.7c-2.9-10.5-6-23.3-8.1-35h-.3c-.5,12.1-.9,25.9-1.6,37.1l-1.6,34.1h-18.8l5.7-89.6h27l8.8,29.9c2.8,10.4,5.6,21.5,7.6,32.1h.4c2.5-10.4,5.6-22.2,8.5-32.2l9.6-29.8h26.5l4.9,89.6h-19.8l-1.3-34.3Z"/>
    <path d="M423,352c6.3-1.1,15-1.9,27.4-1.9s21.4,2.4,27.4,7.2c5.7,4.5,9.6,12,9.6,20.7s-2.9,16.2-8.2,21.3c-6.9,6.5-17.2,9.4-29.1,9.4s-5.1-.1-6.9-.4v32.1h-20.1v-88.5ZM443,392.7c1.7.4,3.9.5,6.8.5,10.8,0,17.4-5.5,17.4-14.6s-5.7-13.2-15.8-13.2-6.9.4-8.4.8v26.5Z"/>
    <path d="M582.3,394.7c0,29.4-17.8,47.2-44,47.2s-42.2-20.1-42.2-45.6,17.2-47,43.6-47,42.6,20.6,42.6,45.4ZM517.5,395.9c0,17.6,8.2,29.9,21.8,29.9s21.5-13,21.5-30.5-7.7-29.9-21.7-29.9-21.7,13-21.7,30.5Z"/>
    <path d="M661.4,437.9c-3.7,1.9-12.1,3.9-23,3.9-31,0-47-19.3-47-44.8s21.8-47.6,48.9-47.6,18.5,2.1,22.1,4l-4.1,16.1c-4.1-1.7-9.8-3.3-17-3.3-16.1,0-28.6,9.7-28.6,29.7s10.6,29.3,28.7,29.3,12.9-1.3,16.9-2.9l3.1,15.8Z"/>
  </g>
  <g fill="#0b992f">
    <path d="M335.7,467.2h13.9v49.5h24.3v11.6h-38.2v-61.2Z"/>
    <path d="M439.1,497.1c0,20.1-12.2,32.2-30,32.2s-28.8-13.7-28.8-31.1,11.7-32,29.8-32,29,14.1,29,30.9ZM394.9,497.9c0,12,5.6,20.4,14.9,20.4s14.7-8.9,14.7-20.8-5.3-20.4-14.8-20.4-14.8,8.9-14.8,20.8Z"/>
    <path d="M497.7,526.6c-2.5,1.3-8.3,2.6-15.7,2.6-21.1,0-32-13.2-32-30.6s14.9-32.5,33.4-32.5,12.6,1.5,15.1,2.7l-2.8,11c-2.8-1.2-6.7-2.3-11.6-2.3-11,0-19.5,6.6-19.5,20.2s7.3,20,19.6,20,8.8-.9,11.5-2l2.1,10.8Z"/>
    <path d="M526.4,512.6l-4.4,15.7h-14.3l18.7-61.2h18.1l19,61.2h-14.9l-4.7-15.7h-17.5ZM541.9,502.3l-3.8-13c-1.1-3.6-2.2-8.2-3.1-11.8h-.2c-.9,3.6-1.8,8.3-2.8,11.8l-3.6,13h13.5Z"/>
    <path d="M576.2,467.2h13.9v49.5h24.3v11.6h-38.2v-61.2Z"/>
    <path d="M627.6,514.1c3.7,1.9,9.4,3.8,15.3,3.8s9.7-2.6,9.7-6.6-2.9-6-10.3-8.6c-10.2-3.5-16.8-9.2-16.8-18.1s8.7-18.4,23.1-18.4,12,1.5,15.6,3.1l-3.1,11.2c-2.4-1.2-6.8-2.9-12.8-2.9s-8.9,2.7-8.9,5.9,3.4,5.6,11.3,8.6c10.8,4,15.9,9.6,15.9,18.2s-7.9,19-24.7,19-13.9-1.8-17.3-3.7l2.8-11.4Z"/>
  </g>
  <path fill="#650c75" d="M250.9,465.7h0s-72.8,0-72.8,0c21.8-102.6,83.4-304.7-107.3-296.1,108.1,59.5,27.8,259.1,6.6,359.2h244v-63.1h-70.5Z"/>
</svg>
