<svg width="512" height="512" viewBox="0 0 512 512" xmlns="http://www.w3.org/2000/svg" role="img" aria-label="Lompoc Locals">
  <rect width="512" height="512" rx="112" fill="#650C75"/>
  <g transform="translate(61.8 -45.8) scale(0.8955)">
    <path fill="#efc618" fill-rule="evenodd" d="M257,161.4c-10-17.2-32.1-23.1-49.4-13.1-17.2,10-23.1,32.1-13.1,49.4,10,17.2,32.1,23.1,49.4,13.1,17.2-10,23.1-32.1,13.1-49.4"/>
    <path fill="#0b992f" d="M217.6,334.1c40.9-41.5,89.3-69.6,151.4-52.3-49.4-64.1-103.3-64.5-154.4-36.9,5.2,27.4,5.5,58.1,3.1,89.2"/>
    <path fill="#ffffff" d="M250.9,465.7h0s-72.8,0-72.8,0c21.8-102.6,83.4-304.7-107.3-296.1,108.1,59.5,27.8,259.1,6.6,359.2h244v-63.1h-70.5Z"/>
  </g>
</svg>
